<svg width="239" height="73" viewBox="0 0 239 73" fill="none" xmlns="http://www.w3.org/2000/svg">
<path d="M63.1537 43.4845C61.0925 42.7949 59.2279 41.6187 57.7178 40.0554C57.3218 39.6594 56.9474 39.2473 56.5407 38.8432C56.396 38.7065 56.2851 38.5379 56.2168 38.3509C56.1486 38.1639 56.1248 37.9635 56.1474 37.7657C56.2221 35.7558 56.0594 33.744 55.6625 31.7722C55.1593 29.0151 54.3348 26.3264 53.2059 23.7612C53.0685 23.4541 52.8934 23.1632 52.7425 22.8615C52.6699 22.7145 52.606 22.5634 52.5513 22.4089C52.4848 22.2573 52.4413 22.0966 52.422 21.9321C52.422 21.7382 52.7398 21.8729 52.8314 21.9321C52.9584 22.0048 53.0657 22.1075 53.1439 22.2311C53.4133 22.6783 54.6631 25.4636 55.3123 24.2837C55.8511 23.2871 55.711 22.0803 55.6464 20.992C55.4605 17.9913 54.8221 14.3736 52.1661 12.5311C50.9027 11.6557 49.6205 10.8422 48.1444 10.3762C47.1764 10.0414 46.1395 9.95707 45.1301 10.131C44.7941 10.2222 44.4859 10.3953 44.2331 10.6347C43.1314 11.5829 42.2263 10.6778 41.0572 10.4193C40.2589 10.2416 39.4313 10.2416 38.6329 10.4193C37.8248 10.6024 37.1352 11.0038 36.3029 11.1142C35.7049 11.195 35.2254 10.8449 34.8321 10.4246C34.6004 10.1822 34.3661 9.94246 34.1371 9.70003C33.7825 9.30192 33.3257 9.0084 32.8163 8.85124C32.3068 8.69408 31.7641 8.67927 31.2468 8.80842C29.0575 9.28144 26.9299 10.0045 24.9058 10.9634C22.7508 12.022 20.9999 13.517 19.2221 15.0982C18.1512 16.0159 17.1298 16.9897 16.162 18.0155C15.3327 18.8907 14.8198 20.0181 14.7047 21.2183C14.5862 22.6379 15.3162 23.6777 16.2402 24.6178C16.5769 24.9572 16.989 25.2212 17.3607 25.5282C17.9183 25.9862 18.255 26.5276 18.0099 27.2845C17.9979 27.336 17.9889 27.3882 17.983 27.4408C17.7675 28.5614 18.2146 29.0112 19.2733 29.3479C19.8006 29.4928 20.343 29.576 20.8895 29.5957C21.2739 29.5955 21.6528 29.6879 21.9939 29.8651C22.705 30.3607 21.0861 31.678 20.7279 32.1413C19.4639 33.8189 18.4159 35.6488 17.6086 37.588C16.9177 39.1926 16.375 40.8571 15.9869 42.5605C15.6745 43.9074 15.5452 45.3081 15.3512 46.6873C15.133 48.2362 14.9984 49.8039 14.7047 51.342C14.4354 52.7266 14.0071 54.0842 13.6515 55.4553C13.3821 56.5516 13.1128 57.6561 12.7653 58.7335C12.2863 60.0999 11.6952 61.4243 10.9982 62.6933C10.5861 63.4879 10.0716 64.2772 9.74832 65.1176C9.70376 65.2134 9.68066 65.3177 9.68066 65.4234C9.68066 65.529 9.70376 65.6333 9.74832 65.7291C9.81316 65.8339 9.90663 65.918 10.0177 65.9715C10.5915 66.2894 11.4561 66.2193 12.0865 66.222L17.7998 66.2409H20.7063C21.404 66.2409 22.4303 66.4187 23.0633 66.082C23.2582 65.956 23.425 65.7913 23.5534 65.598C23.6817 65.4048 23.7689 65.1871 23.8095 64.9587C23.9738 64.2933 24.0788 63.6118 24.2566 62.9546C24.8017 60.9364 25.5753 58.987 26.5624 57.1443C27.5941 55.2021 29.073 52.6673 28.3699 50.41C28.0547 49.4052 27.3436 48.6079 26.5624 47.9318C26.1638 47.5843 25.7274 47.2826 25.3018 46.9728C25.054 46.7897 24.1112 46.2482 24.1543 45.8953C24.1812 45.6394 24.5745 45.8118 24.7145 45.863C25.0034 45.9798 25.2849 46.1138 25.5577 46.2644C25.9458 46.4644 26.3226 46.6856 26.6863 46.927C27.0438 47.1584 27.3882 47.4093 27.718 47.6786C28.0497 47.9577 28.3645 48.2564 28.6608 48.5729C28.9403 48.8667 29.2029 49.176 29.4474 49.4995C30.2286 50.5258 30.4629 51.7972 30.3848 53.1226C30.2824 54.8331 29.5928 56.355 29.073 57.9497C28.5531 59.5443 27.9254 61.1525 27.7746 62.8657C27.7153 63.5445 27.6453 64.226 27.6372 64.9048C27.6372 65.7857 27.9578 66.2517 28.9598 66.2517C32.6206 66.2517 36.2786 66.3136 39.9394 66.3486C40.5535 66.3486 41.1704 66.3486 41.7872 66.3325C42.7031 66.3136 43.627 65.6402 43.0048 64.3876C42.9275 64.2159 42.8374 64.0503 42.7354 63.892C41.9273 62.7606 42.0458 61.6643 42.7731 60.5383C43.7105 59.0891 44.5995 57.6103 45.5261 56.153C46.5463 54.498 47.2863 52.6859 47.7161 50.7898C47.9351 49.8524 48.1023 48.9037 48.2171 47.9479C48.2683 47.5304 48.3141 47.1102 48.3545 46.6927C48.376 46.4799 48.3976 46.2698 48.4165 46.057C48.4165 45.9331 48.4164 45.8091 48.4407 45.6852C48.4499 45.5869 48.4873 45.4934 48.5484 45.4159C48.5627 45.4007 48.5816 45.3909 48.6022 45.388C48.6227 45.385 48.6437 45.3892 48.6616 45.3997C48.6837 45.4243 48.697 45.4556 48.6993 45.4886C48.7442 46.0443 48.7298 46.6033 48.6562 47.156L48.6158 47.6947C48.6023 47.8725 48.5754 48.053 48.5754 48.2335C48.5242 48.8773 48.4703 49.5211 48.403 50.1649C48.2912 51.6753 47.987 53.1653 47.4979 54.5987C47.0809 55.7212 46.5747 56.8084 45.984 57.85C45.4695 58.7524 44.6102 59.6467 44.2951 60.6407C44.1409 61.0609 44.1001 61.5142 44.1766 61.9552C44.3474 62.5686 44.6012 63.1559 44.9308 63.7007C45.122 64.0401 45.4695 64.0294 45.852 63.857C47.1989 63.2455 48.3895 61.667 49.3054 60.5329C52.4058 56.6971 54.1998 52.2363 55.2315 47.4577C55.3958 46.6981 55.5009 45.925 55.5844 45.1546C55.6464 44.6482 55.5655 42.943 56.1016 42.8999C56.406 42.8784 56.9959 43.2555 57.2895 43.366C57.7151 43.5303 58.1407 43.6865 58.5717 43.8347C60.2283 44.4057 61.9658 44.8098 63.7302 44.6751C64.0238 44.6509 64.6002 44.5781 64.6541 44.201C64.7187 43.7027 63.5147 43.6003 63.1537 43.4845ZM51.5546 42.1376C51.5331 42.2023 51.4307 42.2211 51.3768 42.24C50.5333 42.5029 49.6268 42.4821 48.7963 42.1807C48.4098 42.0594 48.031 41.9146 47.6622 41.747C47.4988 41.6752 47.3372 41.5998 47.1773 41.5208C46.0057 40.9305 44.9185 40.1858 43.9449 39.3065C43.856 39.2311 43.7671 39.1503 43.6755 39.0695C43.5839 38.9887 43.487 38.8998 43.4062 38.8001C42.0065 37.4612 40.9623 35.7949 40.3677 33.9515C40.1764 33.3804 40.3865 32.9602 40.9899 32.874C41.3977 32.7976 41.8114 32.7571 42.2263 32.7528C43.3711 32.7528 43.3792 32.9063 43.7025 33.8868C43.887 34.5152 44.1083 35.1322 44.3651 35.7347C44.4136 35.837 44.4621 35.9421 44.5187 36.0445C45.3052 37.5853 46.4339 38.8836 47.6272 40.1281C47.886 40.3977 48.1722 40.6397 48.4811 40.85L48.5431 40.8904C48.9587 41.1686 49.4124 41.3855 49.8899 41.5342L50.1593 41.6097C50.496 41.6985 50.8489 41.739 51.1748 41.8413C51.3119 41.8794 51.4347 41.9572 51.5277 42.0649C51.5377 42.0739 51.5454 42.0853 51.5501 42.0979C51.5548 42.1106 51.5563 42.1242 51.5546 42.1376C51.5546 42.1376 51.5546 42.1268 51.5546 42.1295V42.1376Z" fill="#121646"/>
<path d="M48.4567 66.3432H48.6345C50.7437 66.327 52.8528 66.4051 54.9647 66.4482C56.4381 66.4806 57.9116 66.5533 59.3824 66.5344C60.0046 66.5344 60.6861 66.5533 61.1952 66.0469C61.769 65.4812 61.8659 65.0448 61.4646 64.3444C60.8432 63.3312 60.2924 62.2764 59.816 61.1874C59.3052 59.8359 58.8629 58.4595 58.4907 57.0634C58.0382 55.4822 57.6665 53.8767 57.2166 52.2928C57.0763 51.8222 56.8675 51.3748 56.5971 50.9648C56.3277 50.5554 56.0583 50.6146 55.9156 51.0726C55.5277 52.2955 55.1936 53.5373 54.7627 54.7441C54.0045 56.9217 52.9033 58.9641 51.5006 60.7941C50.7773 61.7086 49.9963 62.576 49.1624 63.3909C48.7503 63.803 48.3301 64.199 47.9099 64.6111C47.5408 64.964 47.1556 65.333 47.4062 65.8772C47.6001 66.2974 48.0446 66.3405 48.4567 66.3432Z" fill="#121646"/>
<path d="M81.3495 31.5163C80.2731 31.5414 79.2056 31.3174 78.2302 30.8617C77.3648 30.4443 76.6504 29.7685 76.1856 28.9277C75.6794 27.9601 75.4317 26.8782 75.4664 25.7868V21.3314C75.4297 20.2316 75.6813 19.1414 76.1964 18.169C76.6603 17.3351 77.3655 16.6609 78.2194 16.2349C79.16 15.7811 80.1949 15.5567 81.239 15.5804C82.247 15.5488 83.2469 15.7692 84.1482 16.2215C84.9189 16.6315 85.5556 17.2541 85.9826 18.0155C86.434 18.8325 86.7024 19.7378 86.7692 20.6688H84.6465C84.528 19.638 84.1994 18.8451 83.6607 18.2902C83.1219 17.7353 82.33 17.4588 81.2848 17.4606C80.0888 17.4606 79.1909 17.8143 78.5911 18.5219C77.9913 19.2294 77.6887 20.1812 77.6833 21.3772V25.7329C77.6833 26.9128 77.9823 27.8565 78.5803 28.564C79.1783 29.2716 80.0664 29.6262 81.2444 29.628C82.2761 29.628 83.0842 29.3587 83.6687 28.8415C84.2533 28.3243 84.5792 27.5108 84.6546 26.4171H86.7773C86.6893 28.0334 86.1586 29.2904 85.1853 30.1883C84.212 31.0862 82.9334 31.5289 81.3495 31.5163Z" fill="#121646"/>
<path d="M90.2393 31.2847V15.804H92.3942V29.4072H99.5164V31.2928L90.2393 31.2847Z" fill="#121646"/>
<path d="M107.546 31.5164C106.459 31.5419 105.381 31.318 104.394 30.8618C103.522 30.446 102.801 29.7703 102.328 28.9277C101.815 27.9625 101.563 26.8796 101.598 25.7868V21.3315C101.561 20.2317 101.813 19.1414 102.328 18.1691C102.801 17.3264 103.522 16.6508 104.394 16.235C105.389 15.8033 106.463 15.5805 107.547 15.5805C108.632 15.5805 109.705 15.8033 110.7 16.235C111.572 16.6508 112.294 17.3264 112.766 18.1691C113.281 19.1414 113.533 20.2317 113.496 21.3315V25.7572C113.533 26.857 113.281 27.9472 112.766 28.9196C112.294 29.7622 111.572 30.4379 110.7 30.8537C109.713 31.313 108.634 31.5397 107.546 31.5164V31.5164ZM107.546 17.4687C106.289 17.4687 105.35 17.8225 104.728 18.53C104.107 19.2376 103.801 20.1893 103.81 21.3853V25.733C103.81 26.9128 104.116 27.8565 104.728 28.5641C105.341 29.2716 106.28 29.6272 107.546 29.6308C108.803 29.6308 109.74 29.2761 110.355 28.5667C110.971 27.8574 111.281 26.9065 111.285 25.7141V21.3773C111.285 20.1812 110.975 19.2295 110.355 18.5219C109.736 17.8144 108.799 17.4606 107.546 17.4606V17.4687Z" fill="#121646"/>
<path d="M126.038 15.804H128.25V26.1289C128.25 27.8691 127.752 29.1997 126.758 30.121C125.763 31.0422 124.425 31.5074 122.744 31.5163C121.076 31.5163 119.745 31.0548 118.752 30.1318C117.759 29.2087 117.26 27.8744 117.257 26.1289V15.804H119.468V26.0885C119.425 27.0089 119.711 27.9146 120.276 28.6421C120.815 29.2994 121.634 29.628 122.733 29.628C123.854 29.628 124.683 29.2994 125.222 28.6421C125.784 27.913 126.071 27.0084 126.03 26.0885L126.038 15.804Z" fill="#121646"/>
<path d="M132.53 31.2847V15.804H137.861C139.691 15.804 141.114 16.2754 142.131 17.2181C143.147 18.1609 143.66 19.515 143.669 21.2803V25.8218C143.704 26.8635 143.471 27.8968 142.993 28.8226C142.551 29.6244 141.872 30.2692 141.048 30.6678C140.081 31.1131 139.025 31.3289 137.961 31.2981L132.53 31.2847ZM137.708 17.6815H134.709V29.4072H137.761C138.498 29.4387 139.231 29.2898 139.898 28.9735C140.419 28.7028 140.833 28.2617 141.069 27.7236C141.326 27.108 141.449 26.4454 141.433 25.7787V21.3314C141.433 20.2109 141.131 19.3228 140.528 18.6674C139.924 18.0119 138.988 17.6833 137.718 17.6815H137.708Z" fill="#121646"/>
<path d="M162.667 31.2847L156.165 19.0984V31.2847H154.042V15.804H156.631L163.133 28.0145V15.804H165.256V31.2847H162.667Z" fill="#121646"/>
<path d="M179.401 31.2847L178.118 27.5916H171.802L170.511 31.2847H168.232L173.851 15.804H176.152L181.771 31.2847H179.401ZM177.488 25.7114L174.945 18.4788L172.378 25.7114H177.488Z" fill="#121646"/>
<path d="M192.815 17.6815H188.303V31.2847H186.149V17.6815H181.602V15.7959H192.815V17.6815Z" fill="#121646"/>
<path d="M195.714 31.2847V15.804H197.882V31.2847H195.714Z" fill="#121646"/>
<path d="M208.388 31.2847H205.999L200.757 15.804H203.146L207.259 28.5533L211.354 15.8147H213.63L208.388 31.2847Z" fill="#121646"/>
<path d="M216.485 31.2847V15.804H226.35V17.6895H218.651V22.3281H225.067V24.2137H218.651V29.4125H226.35V31.2981L216.485 31.2847Z" fill="#121646"/>
<path d="M83.8601 54.4532H81.1529V61.5538H76.6113V41.1814H83.7739C85.1375 41.1459 86.494 41.3888 87.7606 41.8952C88.8028 42.3173 89.695 43.0415 90.3223 43.9747C90.9484 44.9767 91.2625 46.1421 91.2247 47.323V48.3412C91.2603 49.5186 90.93 50.6781 90.2792 51.6599C89.6277 52.588 88.7237 53.3097 87.6744 53.7394C86.4652 54.2361 85.167 54.479 83.8601 54.4532V54.4532ZM83.4237 45.1384H81.1529V50.4935H83.4237C84.4904 50.4935 85.2806 50.2807 85.7942 49.8551C86.0468 49.6476 86.2481 49.3846 86.3822 49.0864C86.5163 48.7883 86.5796 48.4632 86.5673 48.1365V47.525C86.5767 47.0779 86.455 46.6377 86.2171 46.259C85.9629 45.8854 85.6026 45.5964 85.1827 45.4293C84.6214 45.2168 84.0235 45.1179 83.4237 45.1384V45.1384Z" fill="#121646"/>
<path d="M103.36 61.8447C101.841 61.8813 100.333 61.5728 98.9504 60.9423C97.732 60.3715 96.7163 59.4432 96.0385 58.2809C95.3489 57.1065 95.005 55.6752 95.0068 53.9872V48.7775C95.0068 47.0877 95.3507 45.6564 96.0385 44.4838C96.7192 43.3199 97.7336 42.3871 98.9504 41.8062C100.347 41.2021 101.852 40.8904 103.373 40.8904C104.895 40.8904 106.4 41.2021 107.797 41.8062C109.014 42.3867 110.03 43.3195 110.711 44.4838C111.399 45.6582 111.743 47.0895 111.743 48.7775V53.9872C111.743 55.677 111.399 57.1083 110.711 58.2809C110.033 59.4432 109.018 60.3715 107.799 60.9423C106.407 61.5748 104.889 61.8833 103.36 61.8447V61.8447ZM103.36 44.8474C102.116 44.8474 101.205 45.2218 100.58 45.968C99.9552 46.7142 99.6616 47.7189 99.6616 48.9796V53.7824C99.6616 55.0251 99.9677 56.02 100.58 56.7671C101.192 57.5132 102.116 57.8876 103.36 57.8876C104.605 57.8876 105.555 57.5132 106.167 56.7671C106.778 56.0209 107.085 55.0242 107.085 53.7824V48.9796C107.085 47.7225 106.779 46.7186 106.167 45.968C105.554 45.2174 104.619 44.8438 103.36 44.8474Z" fill="#121646"/>
<path d="M123.266 44.8474C122.835 44.8324 122.405 44.9019 122 45.0522C121.708 45.1623 121.462 45.3672 121.3 45.634C121.149 45.9102 121.073 46.2216 121.082 46.5364C121.067 46.8655 121.143 47.1923 121.3 47.4819C121.485 47.759 121.742 47.9806 122.043 48.123C122.394 48.3061 122.851 48.5163 123.412 48.7479L125.507 49.556C126.646 49.9565 127.727 50.5044 128.724 51.1857C129.428 51.6722 129.986 52.3406 130.34 53.1198C130.672 53.9677 130.831 54.8736 130.806 55.7839C130.806 57.7233 130.229 59.2174 129.074 60.2662C127.919 61.3149 126.123 61.8384 123.687 61.8366C121.494 61.8366 119.723 61.3464 118.375 60.3659C117.026 59.3854 116.218 57.761 115.95 55.4929H120.408C120.621 56.3846 120.947 57.0068 121.397 57.3543C121.847 57.7018 122.59 57.893 123.638 57.893C124.551 57.893 125.195 57.7422 125.575 57.4405C125.955 57.1388 126.14 56.6701 126.14 56.029C126.177 55.642 126.093 55.253 125.9 54.9155C125.708 54.578 125.415 54.3083 125.063 54.1434C124.539 53.8618 123.993 53.6239 123.431 53.4323L121.545 52.7319C120.502 52.3563 119.507 51.8581 118.582 51.2477C117.873 50.7798 117.305 50.128 116.939 49.3621C116.575 48.512 116.401 47.5926 116.43 46.6684C116.413 45.6254 116.67 44.5962 117.176 43.6838C117.703 42.7819 118.496 42.065 119.447 41.6311C120.465 41.1373 121.741 40.8904 123.274 40.8904C125.584 40.8904 127.325 41.4623 128.497 42.6063C129.67 43.7502 130.299 45.2928 130.383 47.2341H125.885C125.806 46.4394 125.58 45.8441 125.2 45.4454C124.821 45.0468 124.179 44.8474 123.266 44.8474Z" fill="#121646"/>
<path d="M149.139 45.1384H143.523V61.5539H138.995V45.1384H133.338V41.1814H149.142L149.139 45.1384Z" fill="#121646"/>
<path d="M160.636 61.8447C159.207 61.8725 157.792 61.5634 156.504 60.9423C155.319 60.3567 154.336 59.4298 153.681 58.2809C153.003 57.1065 152.663 55.6752 152.663 53.9872V48.7775C152.663 47.0877 153.008 45.6564 153.697 44.4838C154.377 43.3195 155.39 42.3866 156.607 41.8062C157.987 41.1676 159.496 40.8543 161.016 40.8904C163.209 40.8904 164.936 41.4534 166.196 42.5793C166.819 43.133 167.321 43.8087 167.672 44.5644C168.023 45.3201 168.214 46.1399 168.235 46.9728H163.75C163.657 46.3502 163.335 45.7846 162.848 45.3862C162.383 45.027 161.665 44.8474 160.693 44.8474C159.616 44.8474 158.781 45.221 158.191 45.968C157.6 46.7151 157.307 47.7189 157.312 48.9796V53.7824C157.312 55.0251 157.613 56.02 158.215 56.7671C158.816 57.5141 159.709 57.8876 160.892 57.8876C161.479 57.9093 162.061 57.7784 162.581 57.5078C163.014 57.2689 163.364 56.9033 163.583 56.46C163.814 55.9798 163.929 55.4519 163.917 54.9192V54.3643H160.346V50.4665H168.233V54.3077C168.233 56.9457 167.616 58.8619 166.382 60.0561C165.148 61.2503 163.233 61.8465 160.636 61.8447Z" fill="#121646"/>
<path d="M178.301 54.4532V61.5538H173.76V41.1814H180.92C182.283 41.1459 183.64 41.3888 184.906 41.8952C185.949 42.3173 186.841 43.0415 187.468 43.9747C188.094 44.9767 188.408 46.1421 188.37 47.323V48.3412C188.407 49.4959 188.087 50.6339 187.455 51.6006C186.83 52.504 185.969 53.2187 184.966 53.6667L189.275 61.5538H184.122L180.599 54.4532H178.301ZM180.572 45.1384H178.301V50.4935H180.572C181.639 50.4935 182.429 50.2807 182.943 49.8551C183.194 49.6471 183.394 49.3838 183.528 49.0857C183.661 48.7876 183.723 48.4627 183.71 48.1365V47.525C183.721 47.0781 183.6 46.638 183.363 46.259C183.109 45.8854 182.748 45.5964 182.328 45.4293C181.768 45.2172 181.171 45.1183 180.572 45.1384V45.1384Z" fill="#121646"/>
<path d="M193.521 61.5539V41.1814H207.057V45.1384H198.063V49.0686H205.605V53.0256H198.063V57.6049H207.057V61.562L193.521 61.5539Z" fill="#121646"/>
<path d="M218.346 44.8474C217.915 44.8326 217.485 44.9021 217.08 45.0522C216.79 45.1632 216.544 45.3679 216.383 45.634C216.231 45.9102 216.156 46.2216 216.164 46.5364C216.15 46.8655 216.226 47.1923 216.383 47.4819C216.568 47.759 216.825 47.9806 217.126 48.123C217.474 48.3061 217.934 48.5163 218.492 48.7479L220.588 49.556C221.727 49.9553 222.808 50.5032 223.804 51.1857C224.508 51.6717 225.067 52.3403 225.42 53.1198C225.752 53.9677 225.911 54.8736 225.886 55.7839C225.886 57.7233 225.309 59.2174 224.154 60.2662C222.999 61.3149 221.203 61.8384 218.767 61.8366C216.574 61.8366 214.803 61.3464 213.455 60.3659C212.106 59.3854 211.298 57.761 211.03 55.4929H215.496C215.709 56.3846 216.035 57.0068 216.485 57.3543C216.935 57.7018 217.678 57.893 218.726 57.893C219.637 57.893 220.283 57.7422 220.66 57.4405C221.037 57.1388 221.229 56.6701 221.229 56.029C221.265 55.642 221.181 55.253 220.989 54.9155C220.796 54.578 220.503 54.3083 220.151 54.1434C219.633 53.8619 219.092 53.6241 218.535 53.4323L216.649 52.7319C215.606 52.3563 214.612 51.8581 213.686 51.2477C212.977 50.7798 212.408 50.1281 212.04 49.3621C211.676 48.512 211.503 47.5926 211.531 46.6684C211.511 45.6266 211.763 44.5975 212.264 43.6838C212.791 42.7814 213.584 42.0643 214.535 41.6311C215.553 41.1373 216.828 40.8904 218.36 40.8904C220.671 40.8904 222.413 41.4623 223.586 42.6063C224.758 43.7502 225.387 45.2928 225.471 47.2341H220.967C220.89 46.4403 220.662 45.8441 220.283 45.4454C219.904 45.0468 219.259 44.8474 218.346 44.8474Z" fill="#121646"/>
</svg>
