<svg width="303" height="63" viewBox="0 0 303 63" fill="none" xmlns="http://www.w3.org/2000/svg">
<path d="M53.9736 56.5967C53.3839 55.1625 52.9485 53.6615 52.5064 52.1718C52.0033 50.4742 51.5867 48.7513 51.0891 47.0528C50.9424 46.5525 50.6932 46.0662 50.4064 45.628C50.1214 45.1916 49.8252 45.2584 49.6747 45.7502C49.2693 47.0706 48.9242 48.4108 48.4728 49.7143C47.6564 52.0665 46.5438 54.2549 45.0212 56.2563C44.2613 57.2551 43.4111 58.1805 42.5318 59.0739C42.0916 59.5207 41.644 59.9599 41.1944 60.3981C40.8013 60.7818 40.3894 61.1844 40.6668 61.7665C40.8822 62.2179 41.3609 62.2612 41.8048 62.2593C41.8687 62.2593 41.9318 62.2574 41.9938 62.2565C44.2651 62.2189 46.5363 62.281 48.8066 62.3073C50.3923 62.3252 51.9788 62.3901 53.5635 62.3543C54.2322 62.3393 54.9658 62.3609 55.5103 61.8126C56.1216 61.1966 56.2204 60.7273 55.7802 59.9758C55.1332 58.8746 54.457 57.7723 53.9736 56.5967Z" fill="#121646"/>
<path d="M58.4181 37.7948C58.1228 37.7224 57.8341 37.6434 57.5538 37.5522C54.6459 36.623 52.6361 34.7345 50.425 32.6081C50.0874 32.2818 49.9774 31.9103 50.0009 31.4438C50.126 29.2713 49.8645 27.1252 49.4817 24.994C48.9428 22.0212 48.0522 19.1471 46.839 16.3755C46.5663 15.7539 46.2023 15.2037 46.0123 14.5444C45.9935 14.472 45.9785 14.3892 46.0274 14.3319C46.08 14.2679 46.1863 14.283 46.2662 14.313C46.9716 14.6008 48.0936 17.79 49.0002 16.9746C49.1939 16.8006 49.2654 16.5345 49.3153 16.2805C50.0846 12.481 49.114 6.62654 45.7208 4.27629C44.1624 3.19569 42.4526 2.14517 40.583 1.72478C39.6274 1.51223 38.5882 1.52352 37.7089 1.95614C37.2725 2.16868 36.8784 2.4828 36.4044 2.5966C35.559 2.80538 34.7172 2.33139 33.883 2.07746C32.8711 1.77369 31.767 1.78873 30.7663 2.12636C29.9622 2.39534 29.159 2.8731 28.3248 2.71792C27.168 2.50161 26.3338 1.16708 25.1357 0.75797C23.6986 0.26516 22.1026 0.265162 20.6308 0.595269C16.4071 1.54327 12.4412 4.50859 9.48713 7.56043C6.24532 10.9085 4.95593 15.3372 7.82249 19.3794C8.84667 20.824 10.3514 21.9497 12.0687 22.3936C12.4026 22.4811 12.7553 22.5488 13.0318 22.7538C14.1237 23.5654 11.8186 25.7379 11.3258 26.4433C10.264 27.9716 9.27458 29.5563 8.53913 31.2698C7.17451 34.4439 6.57918 37.6359 6.10142 41.0339C5.27475 46.9109 4.16781 52.9516 1.4188 58.2596C0.974899 59.1126 0.4219 59.9619 0.0729841 60.8572C-0.010718 61.0697 -0.0370513 61.3199 0.0729841 61.5174C0.137877 61.6312 0.243212 61.7187 0.357009 61.7789C0.971139 62.1203 1.90409 62.0441 2.58311 62.0478C4.63052 62.0554 6.67793 62.0629 8.72911 62.0666C9.77209 62.0704 10.8141 62.0742 11.8571 62.0742C12.6076 62.0742 13.7117 62.2641 14.3936 61.903C14.8337 61.6716 15.0764 61.1788 15.1977 60.6936C15.3754 59.9807 15.4892 59.249 15.6792 58.5361C16.2632 56.3561 17.0937 54.2814 18.1592 52.2876C19.8502 49.121 21.6174 45.5425 18.4781 42.6524C17.6514 41.8944 16.6996 41.2915 15.8128 40.6088C15.6425 40.4762 15.4751 40.2072 15.6538 40.0858C15.7225 40.0369 15.8165 40.0482 15.904 40.067C19.3283 40.7837 22.4939 44.4619 22.2813 47.984C22.1675 49.8226 21.4283 51.4722 20.8669 53.1782C20.2979 54.9115 19.6311 56.6251 19.4712 58.4675C19.4063 59.1954 19.3311 59.9308 19.3236 60.6625C19.3123 61.6105 19.6687 62.0996 20.7455 62.1033C24.6852 62.1108 28.6248 62.172 32.5645 62.2096C33.5651 62.2209 35.621 62.551 36.0226 61.2578C36.1703 60.7801 35.9812 60.2685 35.7348 59.8358C35.4884 59.4032 35.1734 58.9979 35.0408 58.5163C34.7981 57.6558 35.1771 56.7492 35.5796 55.9498C36.0461 55.0244 36.6264 54.1563 37.0891 53.2309C37.6318 52.2528 38.2685 51.3424 38.7575 50.3305C39.2729 49.2724 39.6905 48.1692 40.0356 47.0473C40.5021 45.5415 40.8397 43.9982 41.1049 42.4474C41.1614 42.1116 41.198 41.7731 41.2385 41.4345C41.2592 41.2643 41.2799 41.094 41.3043 40.9248C41.3316 40.7348 41.3739 40.5091 41.6203 40.5269C43.0903 40.6304 40.8839 49.0439 40.6911 49.5574C40.2397 50.7631 39.698 51.9349 39.0603 53.0569C38.26 54.4638 36.7891 55.741 37.1493 57.5194C37.2781 58.1486 37.4296 59.0515 37.9985 59.4493C38.7791 59.9995 39.7845 59.0853 40.3384 58.5888C41.2103 57.8035 41.9119 56.8677 42.6473 55.9573C44.6721 53.4547 46.2305 50.607 47.3638 47.6003C48.5958 44.3171 49.146 41.0517 49.5777 37.5936C49.604 37.3961 49.6463 37.1723 49.8128 37.0669C50.0028 36.9456 50.2492 37.0368 50.4532 37.1281C52.9558 38.235 55.6597 39.1303 58.3814 38.8679C58.7153 38.8341 59.1319 38.6939 59.1395 38.3601C59.146 38.03 58.7407 37.8701 58.4181 37.7948ZM45.1057 36.0851C45.0794 36.1801 45.007 36.2628 44.9232 36.3164C44.7643 36.4152 44.5518 36.4415 44.3693 36.4603C43.1561 36.5854 41.9617 36.2139 40.8698 35.7211C40.6958 35.6449 40.5209 35.5659 40.3469 35.4785C38.6823 34.6518 37.1352 33.4724 35.8571 32.1228C34.7727 30.9773 33.9159 29.6202 33.3281 28.1569C33.2031 27.8456 33.0554 27.5126 32.983 27.1825C32.9219 26.9023 32.9604 26.5721 33.1767 26.3784C33.3131 26.2571 33.4993 26.2119 33.6771 26.1734C34.2724 26.0558 34.9053 25.9909 35.5082 26.0445C35.7546 26.0596 36.0123 26.1245 36.1872 26.2947C36.3424 26.4424 36.4185 26.6512 36.4872 26.8562C36.7825 27.743 37.0299 28.6572 37.4502 29.4989C37.8753 30.3519 38.4359 31.1523 39.0199 31.9028C39.2324 32.1755 39.4525 32.4407 39.6801 32.7031C40.8059 33.9963 42.2852 35.1531 44.0138 35.4822C44.0825 35.4973 44.1502 35.5086 44.2226 35.5198C44.4615 35.5537 44.7116 35.5772 44.9167 35.7098C45.0154 35.7747 45.1029 35.8763 45.1142 35.9938C45.1132 36.0239 45.1132 36.054 45.1057 36.0851Z" fill="#121646"/>
<path d="M53.9736 56.5967C53.3839 55.1625 52.9485 53.6615 52.5064 52.1718C52.0033 50.4742 51.5867 48.7513 51.0891 47.0528C50.9424 46.5525 50.6932 46.0662 50.4064 45.628C50.1214 45.1916 49.8252 45.2584 49.6747 45.7502C49.2693 47.0706 48.9242 48.4108 48.4728 49.7143C47.6564 52.0665 46.5438 54.2549 45.0212 56.2563C44.2613 57.2551 43.4111 58.1805 42.5318 59.0739C42.0916 59.5207 41.644 59.9599 41.1944 60.3981C40.8013 60.7818 40.3894 61.1844 40.6668 61.7665C40.8822 62.2179 41.3609 62.2612 41.8048 62.2593C41.8687 62.2593 41.9318 62.2574 41.9938 62.2565C44.2651 62.2189 46.5363 62.281 48.8066 62.3073C50.3923 62.3252 51.9788 62.3901 53.5635 62.3543C54.2322 62.3393 54.9658 62.3609 55.5103 61.8126C56.1216 61.1966 56.2204 60.7273 55.7802 59.9758C55.1332 58.8746 54.457 57.7723 53.9736 56.5967Z" fill="url(#paint0_radial_247_49)"/>
<path d="M58.4181 37.7948C58.1228 37.7224 57.8341 37.6434 57.5538 37.5522C54.6459 36.623 52.6361 34.7345 50.425 32.6081C50.0874 32.2818 49.9774 31.9103 50.0009 31.4438C50.126 29.2713 49.8645 27.1252 49.4817 24.994C48.9428 22.0212 48.0522 19.1471 46.839 16.3755C46.5663 15.7539 46.2023 15.2037 46.0123 14.5444C45.9935 14.472 45.9785 14.3892 46.0274 14.3319C46.08 14.2679 46.1863 14.283 46.2662 14.313C46.9716 14.6008 48.0936 17.79 49.0002 16.9746C49.1939 16.8006 49.2654 16.5345 49.3153 16.2805C50.0846 12.481 49.114 6.62654 45.7208 4.27629C44.1624 3.19569 42.4526 2.14517 40.583 1.72478C39.6274 1.51223 38.5882 1.52352 37.7089 1.95614C37.2725 2.16868 36.8784 2.4828 36.4044 2.5966C35.559 2.80538 34.7172 2.33139 33.883 2.07746C32.8711 1.77369 31.767 1.78873 30.7663 2.12636C29.9622 2.39534 29.159 2.8731 28.3248 2.71792C27.168 2.50161 26.3338 1.16708 25.1357 0.75797C23.6986 0.26516 22.1026 0.265162 20.6308 0.595269C16.4071 1.54327 12.4412 4.50859 9.48713 7.56043C6.24532 10.9085 4.95593 15.3372 7.82249 19.3794C8.84667 20.824 10.3514 21.9497 12.0687 22.3936C12.4026 22.4811 12.7553 22.5488 13.0318 22.7538C14.1237 23.5654 11.8186 25.7379 11.3258 26.4433C10.264 27.9716 9.27458 29.5563 8.53913 31.2698C7.17451 34.4439 6.57918 37.6359 6.10142 41.0339C5.27475 46.9109 4.16781 52.9516 1.4188 58.2596C0.974899 59.1126 0.4219 59.9619 0.0729841 60.8572C-0.010718 61.0697 -0.0370513 61.3199 0.0729841 61.5174C0.137877 61.6312 0.243212 61.7187 0.357009 61.7789C0.971139 62.1203 1.90409 62.0441 2.58311 62.0478C4.63052 62.0554 6.67793 62.0629 8.72911 62.0666C9.77209 62.0704 10.8141 62.0742 11.8571 62.0742C12.6076 62.0742 13.7117 62.2641 14.3936 61.903C14.8337 61.6716 15.0764 61.1788 15.1977 60.6936C15.3754 59.9807 15.4892 59.249 15.6792 58.5361C16.2632 56.3561 17.0937 54.2814 18.1592 52.2876C19.8502 49.121 21.6174 45.5425 18.4781 42.6524C17.6514 41.8944 16.6996 41.2915 15.8128 40.6088C15.6425 40.4762 15.4751 40.2072 15.6538 40.0858C15.7225 40.0369 15.8165 40.0482 15.904 40.067C19.3283 40.7837 22.4939 44.4619 22.2813 47.984C22.1675 49.8226 21.4283 51.4722 20.8669 53.1782C20.2979 54.9115 19.6311 56.6251 19.4712 58.4675C19.4063 59.1954 19.3311 59.9308 19.3236 60.6625C19.3123 61.6105 19.6687 62.0996 20.7455 62.1033C24.6852 62.1108 28.6248 62.172 32.5645 62.2096C33.5651 62.2209 35.621 62.551 36.0226 61.2578C36.1703 60.7801 35.9812 60.2685 35.7348 59.8358C35.4884 59.4032 35.1734 58.9979 35.0408 58.5163C34.7981 57.6558 35.1771 56.7492 35.5796 55.9498C36.0461 55.0244 36.6264 54.1563 37.0891 53.2309C37.6318 52.2528 38.2685 51.3424 38.7575 50.3305C39.2729 49.2724 39.6905 48.1692 40.0356 47.0473C40.5021 45.5415 40.8397 43.9982 41.1049 42.4474C41.1614 42.1116 41.198 41.7731 41.2385 41.4345C41.2592 41.2643 41.2799 41.094 41.3043 40.9248C41.3316 40.7348 41.3739 40.5091 41.6203 40.5269C43.0903 40.6304 40.8839 49.0439 40.6911 49.5574C40.2397 50.7631 39.698 51.9349 39.0603 53.0569C38.26 54.4638 36.7891 55.741 37.1493 57.5194C37.2781 58.1486 37.4296 59.0515 37.9985 59.4493C38.7791 59.9995 39.7845 59.0853 40.3384 58.5888C41.2103 57.8035 41.9119 56.8677 42.6473 55.9573C44.6721 53.4547 46.2305 50.607 47.3638 47.6003C48.5958 44.3171 49.146 41.0517 49.5777 37.5936C49.604 37.3961 49.6463 37.1723 49.8128 37.0669C50.0028 36.9456 50.2492 37.0368 50.4532 37.1281C52.9558 38.235 55.6597 39.1303 58.3814 38.8679C58.7153 38.8341 59.1319 38.6939 59.1395 38.3601C59.146 38.03 58.7407 37.8701 58.4181 37.7948ZM45.1057 36.0851C45.0794 36.1801 45.007 36.2628 44.9232 36.3164C44.7643 36.4152 44.5518 36.4415 44.3693 36.4603C43.1561 36.5854 41.9617 36.2139 40.8698 35.7211C40.6958 35.6449 40.5209 35.5659 40.3469 35.4785C38.6823 34.6518 37.1352 33.4724 35.8571 32.1228C34.7727 30.9773 33.9159 29.6202 33.3281 28.1569C33.2031 27.8456 33.0554 27.5126 32.983 27.1825C32.9219 26.9023 32.9604 26.5721 33.1767 26.3784C33.3131 26.2571 33.4993 26.2119 33.6771 26.1734C34.2724 26.0558 34.9053 25.9909 35.5082 26.0445C35.7546 26.0596 36.0123 26.1245 36.1872 26.2947C36.3424 26.4424 36.4185 26.6512 36.4872 26.8562C36.7825 27.743 37.0299 28.6572 37.4502 29.4989C37.8753 30.3519 38.4359 31.1523 39.0199 31.9028C39.2324 32.1755 39.4525 32.4407 39.6801 32.7031C40.8059 33.9963 42.2852 35.1531 44.0138 35.4822C44.0825 35.4973 44.1502 35.5086 44.2226 35.5198C44.4615 35.5537 44.7116 35.5772 44.9167 35.7098C45.0154 35.7747 45.1029 35.8763 45.1142 35.9938C45.1132 36.0239 45.1132 36.054 45.1057 36.0851Z" fill="url(#paint1_radial_247_49)"/>
<path d="M76.2282 26.7595C77.0662 25.55 78.3293 24.9453 80.0174 24.9453C81.5701 24.9453 82.726 25.3027 83.4859 26.0174C84.2458 26.7322 84.6869 27.8824 84.811 29.469H89.8745C89.6046 26.7237 88.603 24.5917 86.8706 23.0728C85.1383 21.554 82.8539 20.7941 80.0183 20.7941C77.97 20.7941 76.1727 21.2756 74.6257 22.2367C73.0786 23.1988 71.8889 24.5804 71.0566 26.3805C70.2242 28.1805 69.8076 30.2618 69.8076 32.6252V34.1271C69.8076 37.8288 70.7105 40.7405 72.5162 42.8612C74.3219 44.982 76.8 46.0429 79.9506 46.0429C82.8313 46.0429 85.1514 45.2829 86.9129 43.7641C88.6735 42.2452 89.6497 40.164 89.8416 37.5194H84.7781C84.6652 39.0157 84.2241 40.1216 83.4529 40.8355C82.6818 41.5502 81.5146 41.9076 79.9506 41.9076C78.2183 41.9076 76.9496 41.2944 76.1445 40.068C75.3395 38.8417 74.9379 36.9005 74.9379 34.2456V32.3891C74.9595 29.8451 75.3893 27.9689 76.2282 26.7595Z" fill="#121646"/>
<path d="M97.9909 19.78H93.0967V45.7033H97.9909V19.78Z" fill="#121646"/>
<path d="M115.907 29.3665C114.349 27.8589 112.338 27.1046 109.874 27.1046C108.141 27.1046 106.619 27.493 105.309 28.2689C103.998 29.0458 102.994 30.1424 102.297 31.5597C101.599 32.9769 101.25 34.5917 101.25 36.4031V36.6222C101.25 39.5255 102.035 41.8202 103.604 43.5084C105.174 45.1956 107.275 46.0401 109.908 46.0401C112.541 46.0401 114.64 45.1937 116.204 43.4999C117.768 41.8071 118.549 39.5593 118.549 36.7576L118.515 35.5087C118.335 32.9224 117.465 30.875 115.907 29.3665ZM112.675 40.7481C112.011 41.6556 111.088 42.1089 109.907 42.1089C108.692 42.1089 107.758 41.65 107.105 40.7311C106.453 39.8132 106.126 38.4862 106.126 36.7501C106.126 34.8005 106.453 33.3616 107.105 32.4315C107.758 31.5023 108.681 31.0367 109.873 31.0367C111.077 31.0367 112.011 31.5042 112.675 32.4399C113.339 33.3757 113.671 34.6933 113.671 36.3956C113.671 38.3903 113.339 39.8415 112.675 40.7481Z" fill="#121646"/>
<path d="M132.32 40.3849C131.701 41.5342 130.565 42.1088 128.91 42.1088C127.178 42.1088 126.311 41.1571 126.311 39.2536V27.4431H121.434V39.4087C121.456 41.5803 121.982 43.2289 123.012 44.3537C124.042 45.4786 125.535 46.041 127.492 46.041C129.619 46.041 131.284 45.3093 132.488 43.8468L132.623 45.7033H137.214V27.4421H132.32V40.3849Z" fill="#121646"/>
<path d="M151.695 29.0964C150.537 27.7684 149.067 27.1044 147.29 27.1044C145.073 27.1044 143.327 27.948 142.05 29.6362C140.772 31.3243 140.134 33.5909 140.134 36.4377C140.134 39.4529 140.784 41.8078 142.083 43.5007C143.383 45.1945 145.107 46.0409 147.256 46.0409C149.169 46.0409 150.733 45.281 151.948 43.7621L152.184 45.7033H156.589V19.78H151.695V29.0964V29.0964ZM151.695 40.1987C151.076 41.4721 150.013 42.1088 148.505 42.1088C147.368 42.1088 146.502 41.6526 145.906 40.7394C145.309 39.8272 145.011 38.5143 145.011 36.8007C145.011 32.9805 146.187 31.0704 148.539 31.0704C150.035 31.0704 151.088 31.7071 151.695 32.9805V40.1987V40.1987Z" fill="#121646"/>
<path d="M175.627 37.332L165.754 21.1305H160.69V45.7041H165.754V29.5355L175.61 45.7041H180.672V21.1305H175.627V37.332Z" fill="#121646"/>
<path d="M199.558 33.5694C199.558 31.522 198.897 29.9326 197.575 28.8012C196.252 27.6708 194.466 27.1046 192.216 27.1046C190.731 27.1046 189.392 27.3604 188.199 27.873C187.007 28.3846 186.084 29.0909 185.431 29.9909C184.779 30.891 184.452 31.87 184.452 32.9271H189.33C189.33 32.2405 189.563 31.7007 190.03 31.3067C190.497 30.9126 191.141 30.716 191.963 30.716C192.897 30.716 193.58 30.969 194.013 31.4759C194.446 31.9819 194.663 32.6572 194.663 33.5017V34.5485H192.418C189.707 34.5598 187.633 35.0827 186.199 36.1181C184.764 37.1536 184.047 38.6386 184.047 40.5741C184.047 42.1494 184.635 43.4548 185.81 44.4893C186.986 45.5247 188.468 46.042 190.258 46.042C192.148 46.042 193.684 45.3837 194.865 44.067C194.967 44.7197 195.129 45.2652 195.354 45.7044H200.282V45.4175C199.81 44.5288 199.568 43.2178 199.556 41.4854V33.5694H199.558ZM194.664 40.5393C194.371 41.0791 193.921 41.5099 193.313 41.8306C192.706 42.1513 192.042 42.3121 191.321 42.3121C190.578 42.3121 189.993 42.1155 189.567 41.7215C189.139 41.3274 188.925 40.8271 188.925 40.2195L188.942 39.9327C189.099 38.2455 190.399 37.4009 192.84 37.4009H194.663V40.5393H194.664Z" fill="#121646"/>
<path d="M209.533 41.5858C209.274 41.2933 209.144 40.8099 209.144 40.1346V31.0205H212.266V27.443H209.144V22.9531H204.267V27.442H201.601V31.0196H204.267V40.8588C204.335 44.3132 206.078 46.0399 209.499 46.0399C210.512 46.0399 211.495 45.8932 212.452 45.6007V41.9046C212.035 41.9836 211.557 42.0231 211.018 42.0231C210.287 42.0241 209.791 41.8783 209.533 41.5858Z" fill="#121646"/>
<path d="M217.685 20.2025C216.841 20.2025 216.175 20.4386 215.685 20.9116C215.196 21.3838 214.95 21.9866 214.95 22.7173C214.95 23.4603 215.2 24.0679 215.702 24.54C216.202 25.0121 216.863 25.2491 217.685 25.2491C218.506 25.2491 219.167 25.013 219.669 24.54C220.169 24.0679 220.42 23.4594 220.42 22.7173C220.42 21.9857 220.173 21.3838 219.677 20.9116C219.181 20.4386 218.517 20.2025 217.685 20.2025Z" fill="#121646"/>
<path d="M220.132 27.4431H215.238V45.7043H220.132V27.4431Z" fill="#121646"/>
<path d="M230.984 39.7464L227.592 27.4431H222.494L228.654 45.7043H233.312L239.473 27.4431H234.376L230.984 39.7464Z" fill="#121646"/>
<path d="M257.312 36.1676C257.312 33.2757 256.595 31.043 255.16 29.4677C253.726 27.8924 251.76 27.1052 249.262 27.1052C247.596 27.1052 246.114 27.4965 244.814 28.278C243.515 29.0605 242.51 30.174 241.802 31.6195C241.093 33.065 240.738 34.7052 240.738 36.5391V37.0112C240.738 39.7452 241.579 41.9337 243.262 43.5767C244.943 45.2197 247.123 46.0407 249.802 46.0407C251.32 46.0407 252.705 45.7511 253.953 45.1717C255.202 44.5924 256.192 43.7855 256.923 42.75L254.527 40.0668C253.469 41.4287 252 42.1086 250.121 42.1086C248.906 42.1086 247.902 41.7484 247.109 41.028C246.316 40.3076 245.84 39.3521 245.683 38.1586H257.311V36.1676H257.312ZM252.519 34.835H245.734C245.902 33.6143 246.288 32.6766 246.89 32.0211C247.492 31.3656 248.276 31.0374 249.244 31.0374C250.278 31.0374 251.078 31.3345 251.64 31.927C252.203 32.5205 252.495 33.3594 252.518 34.4447V34.835H252.519Z" fill="#121646"/>
<path d="M76.2282 26.7595C77.0662 25.55 78.3293 24.9453 80.0174 24.9453C81.5701 24.9453 82.726 25.3027 83.4859 26.0174C84.2458 26.7322 84.6869 27.8824 84.811 29.469H89.8745C89.6046 26.7237 88.603 24.5917 86.8706 23.0728C85.1383 21.554 82.8539 20.7941 80.0183 20.7941C77.97 20.7941 76.1727 21.2756 74.6257 22.2367C73.0786 23.1988 71.8889 24.5804 71.0566 26.3805C70.2242 28.1805 69.8076 30.2618 69.8076 32.6252V34.1271C69.8076 37.8288 70.7105 40.7405 72.5162 42.8612C74.3219 44.982 76.8 46.0429 79.9506 46.0429C82.8313 46.0429 85.1514 45.2829 86.9129 43.7641C88.6735 42.2452 89.6497 40.164 89.8416 37.5194H84.7781C84.6652 39.0157 84.2241 40.1216 83.4529 40.8355C82.6818 41.5502 81.5146 41.9076 79.9506 41.9076C78.2183 41.9076 76.9496 41.2944 76.1445 40.068C75.3395 38.8417 74.9379 36.9005 74.9379 34.2456V32.3891C74.9595 29.8451 75.3893 27.9689 76.2282 26.7595Z" fill="#121646"/>
<path d="M97.9909 19.78H93.0967V45.7033H97.9909V19.78Z" fill="#121646"/>
<path d="M115.907 29.3665C114.349 27.8589 112.338 27.1046 109.874 27.1046C108.141 27.1046 106.619 27.493 105.309 28.2689C103.998 29.0458 102.994 30.1424 102.297 31.5597C101.599 32.9769 101.25 34.5917 101.25 36.4031V36.6222C101.25 39.5255 102.035 41.8202 103.604 43.5084C105.174 45.1956 107.275 46.0401 109.908 46.0401C112.541 46.0401 114.64 45.1937 116.204 43.4999C117.768 41.8071 118.549 39.5593 118.549 36.7576L118.515 35.5087C118.335 32.9224 117.465 30.875 115.907 29.3665ZM112.675 40.7481C112.011 41.6556 111.088 42.1089 109.907 42.1089C108.692 42.1089 107.758 41.65 107.105 40.7311C106.453 39.8132 106.126 38.4862 106.126 36.7501C106.126 34.8005 106.453 33.3616 107.105 32.4315C107.758 31.5023 108.681 31.0367 109.873 31.0367C111.077 31.0367 112.011 31.5042 112.675 32.4399C113.339 33.3757 113.671 34.6933 113.671 36.3956C113.671 38.3903 113.339 39.8415 112.675 40.7481Z" fill="#121646"/>
<path d="M132.32 40.3849C131.701 41.5342 130.565 42.1088 128.91 42.1088C127.178 42.1088 126.311 41.1571 126.311 39.2536V27.4431H121.434V39.4087C121.456 41.5803 121.982 43.2289 123.012 44.3537C124.042 45.4786 125.535 46.041 127.492 46.041C129.619 46.041 131.284 45.3093 132.488 43.8468L132.623 45.7033H137.214V27.4421H132.32V40.3849Z" fill="#121646"/>
<path d="M151.695 29.0964C150.537 27.7684 149.067 27.1044 147.29 27.1044C145.073 27.1044 143.327 27.948 142.05 29.6362C140.772 31.3243 140.134 33.5909 140.134 36.4377C140.134 39.4529 140.784 41.8078 142.083 43.5007C143.383 45.1945 145.107 46.0409 147.256 46.0409C149.169 46.0409 150.733 45.281 151.948 43.7621L152.184 45.7033H156.589V19.78H151.695V29.0964V29.0964ZM151.695 40.1987C151.076 41.4721 150.013 42.1088 148.505 42.1088C147.368 42.1088 146.502 41.6526 145.906 40.7394C145.309 39.8272 145.011 38.5143 145.011 36.8007C145.011 32.9805 146.187 31.0704 148.539 31.0704C150.035 31.0704 151.088 31.7071 151.695 32.9805V40.1987V40.1987Z" fill="#121646"/>
<path d="M175.627 37.332L165.754 21.1305H160.69V45.7041H165.754V29.5355L175.61 45.7041H180.672V21.1305H175.627V37.332Z" fill="#121646"/>
<path d="M199.558 33.5694C199.558 31.522 198.897 29.9326 197.575 28.8012C196.252 27.6708 194.466 27.1046 192.216 27.1046C190.731 27.1046 189.392 27.3604 188.199 27.873C187.007 28.3846 186.084 29.0909 185.431 29.9909C184.779 30.891 184.452 31.87 184.452 32.9271H189.33C189.33 32.2405 189.563 31.7007 190.03 31.3067C190.497 30.9126 191.141 30.716 191.963 30.716C192.897 30.716 193.58 30.969 194.013 31.4759C194.446 31.9819 194.663 32.6572 194.663 33.5017V34.5485H192.418C189.707 34.5598 187.633 35.0827 186.199 36.1181C184.764 37.1536 184.047 38.6386 184.047 40.5741C184.047 42.1494 184.635 43.4548 185.81 44.4893C186.986 45.5247 188.468 46.042 190.258 46.042C192.148 46.042 193.684 45.3837 194.865 44.067C194.967 44.7197 195.129 45.2652 195.354 45.7044H200.282V45.4175C199.81 44.5288 199.568 43.2178 199.556 41.4854V33.5694H199.558ZM194.664 40.5393C194.371 41.0791 193.921 41.5099 193.313 41.8306C192.706 42.1513 192.042 42.3121 191.321 42.3121C190.578 42.3121 189.993 42.1155 189.567 41.7215C189.139 41.3274 188.925 40.8271 188.925 40.2195L188.942 39.9327C189.099 38.2455 190.399 37.4009 192.84 37.4009H194.663V40.5393H194.664Z" fill="#121646"/>
<path d="M209.533 41.5858C209.274 41.2933 209.144 40.8099 209.144 40.1346V31.0205H212.266V27.443H209.144V22.9531H204.267V27.442H201.601V31.0196H204.267V40.8588C204.335 44.3132 206.078 46.0399 209.499 46.0399C210.512 46.0399 211.495 45.8932 212.452 45.6007V41.9046C212.035 41.9836 211.557 42.0231 211.018 42.0231C210.287 42.0241 209.791 41.8783 209.533 41.5858Z" fill="#121646"/>
<path d="M217.685 20.2025C216.841 20.2025 216.175 20.4386 215.685 20.9116C215.196 21.3838 214.95 21.9866 214.95 22.7173C214.95 23.4603 215.2 24.0679 215.702 24.54C216.202 25.0121 216.863 25.2491 217.685 25.2491C218.506 25.2491 219.167 25.013 219.669 24.54C220.169 24.0679 220.42 23.4594 220.42 22.7173C220.42 21.9857 220.173 21.3838 219.677 20.9116C219.181 20.4386 218.517 20.2025 217.685 20.2025Z" fill="#121646"/>
<path d="M220.132 27.4431H215.238V45.7043H220.132V27.4431Z" fill="#121646"/>
<path d="M230.984 39.7464L227.592 27.4431H222.494L228.654 45.7043H233.312L239.473 27.4431H234.376L230.984 39.7464Z" fill="#121646"/>
<path d="M257.312 36.1676C257.312 33.2757 256.595 31.043 255.16 29.4677C253.726 27.8924 251.76 27.1052 249.262 27.1052C247.596 27.1052 246.114 27.4965 244.814 28.278C243.515 29.0605 242.51 30.174 241.802 31.6195C241.093 33.065 240.738 34.7052 240.738 36.5391V37.0112C240.738 39.7452 241.579 41.9337 243.262 43.5767C244.943 45.2197 247.123 46.0407 249.802 46.0407C251.32 46.0407 252.705 45.7511 253.953 45.1717C255.202 44.5924 256.192 43.7855 256.923 42.75L254.527 40.0668C253.469 41.4287 252 42.1086 250.121 42.1086C248.906 42.1086 247.902 41.7484 247.109 41.028C246.316 40.3076 245.84 39.3521 245.683 38.1586H257.311V36.1676H257.312ZM252.519 34.835H245.734C245.902 33.6143 246.288 32.6766 246.89 32.0211C247.492 31.3656 248.276 31.0374 249.244 31.0374C250.278 31.0374 251.078 31.3345 251.64 31.927C252.203 32.5205 252.495 33.3594 252.518 34.4447V34.835H252.519Z" fill="#121646"/>
<path d="M266.255 37.0461V45.7041H261.191V21.1305H270.778C272.623 21.1305 274.246 21.4681 275.646 22.1434C277.047 22.8186 278.125 23.7779 278.879 25.0212C279.632 26.2645 280.009 27.679 280.009 29.2656C280.009 31.6732 279.185 33.572 277.537 34.962C275.888 36.3521 273.608 37.0461 270.693 37.0461H266.255ZM266.255 32.9447H270.778C272.117 32.9447 273.137 32.6297 273.841 31.9995C274.544 31.3694 274.896 30.4694 274.896 29.2995C274.896 28.0956 274.541 27.1223 273.833 26.3793C273.125 25.6363 272.145 25.2545 270.896 25.2319H266.255V32.9447Z" fill="#121646"/>
<path d="M302.928 42.5988C302.017 43.6898 300.729 44.5371 299.064 45.139C297.398 45.7409 295.553 46.0419 293.528 46.0419C291.402 46.0419 289.537 45.5773 287.933 44.65C286.33 43.7218 285.092 42.3741 284.22 40.6079C283.348 38.8417 282.901 36.7661 282.878 34.3801V32.7089C282.878 30.2561 283.292 28.1325 284.118 26.3381C284.945 24.5437 286.138 23.1706 287.697 22.2198C289.255 21.269 291.081 20.7941 293.174 20.7941C296.087 20.7941 298.366 21.4891 300.009 22.8781C301.652 24.2682 302.626 26.2902 302.929 28.9451H298.001C297.776 27.5391 297.278 26.5093 296.508 25.8566C295.736 25.2039 294.676 24.8776 293.326 24.8776C291.605 24.8776 290.294 25.5246 289.394 26.8187C288.494 28.1128 288.037 30.037 288.026 32.5904V34.16C288.026 36.7369 288.515 38.6827 289.494 39.9994C290.473 41.316 291.908 41.9744 293.798 41.9744C295.7 41.9744 297.055 41.569 297.866 40.7593V36.5234H293.258V32.7935H302.929V42.5988H302.928Z" fill="#121646"/>
<defs>
<radialGradient id="paint0_radial_247_49" cx="0" cy="0" r="1" gradientUnits="userSpaceOnUse" gradientTransform="translate(-57.839 -57.2298) scale(198.957 198.957)">
<stop stop-color="#732DD9"/>
<stop offset="0.1185" stop-color="#6A2BCB"/>
<stop offset="0.3434" stop-color="#5125A5"/>
<stop offset="0.6486" stop-color="#291C69"/>
<stop offset="0.8139" stop-color="#121646"/>
<stop offset="1" stop-color="#121646"/>
</radialGradient>
<radialGradient id="paint1_radial_247_49" cx="0" cy="0" r="1" gradientUnits="userSpaceOnUse" gradientTransform="translate(-57.8392 -57.2298) scale(198.957 198.957)">
<stop stop-color="#732DD9"/>
<stop offset="0.1185" stop-color="#6A2BCB"/>
<stop offset="0.3434" stop-color="#5125A5"/>
<stop offset="0.6486" stop-color="#291C69"/>
<stop offset="0.8139" stop-color="#121646"/>
<stop offset="1" stop-color="#121646"/>
</radialGradient>
</defs>
</svg>
